<svg width="175" height="165" viewBox="0 0 175 165" fill="none" xmlns="http://www.w3.org/2000/svg">
<g clip-path="url(#clip0_102_33)">
<path d="M120.312 61.875C120.312 70.0801 116.855 77.9492 110.702 83.7511C104.548 89.553 96.2024 92.8125 87.5 92.8125C78.7976 92.8125 70.4516 89.553 64.2981 83.7511C58.1445 77.9492 54.6875 70.0801 54.6875 61.875C54.6875 53.6699 58.1445 45.8008 64.2981 39.9989C70.4516 34.197 78.7976 30.9375 87.5 30.9375C96.2024 30.9375 104.548 34.197 110.702 39.9989C116.855 45.8008 120.312 53.6699 120.312 61.875V61.875Z" fill="#5EA7DA"/>
<path fill-rule="evenodd" clip-rule="evenodd" d="M0 82.5C0 60.6196 9.21873 39.6354 25.6282 24.1637C42.0376 8.69194 64.2936 0 87.5 0C110.706 0 132.962 8.69194 149.372 24.1637C165.781 39.6354 175 60.6196 175 82.5C175 104.38 165.781 125.365 149.372 140.836C132.962 156.308 110.706 165 87.5 165C64.2936 165 42.0376 156.308 25.6282 140.836C9.21873 125.365 0 104.38 0 82.5V82.5ZM87.5 10.3125C73.0819 10.3132 58.9571 14.1525 46.7513 21.3884C34.5454 28.6243 24.7547 38.9628 18.5059 51.2139C12.2571 63.4649 9.80423 77.1307 11.4297 90.6382C13.0551 104.146 18.6928 116.946 27.6938 127.566C35.4594 115.768 52.5547 103.125 87.5 103.125C122.445 103.125 139.53 115.758 147.306 127.566C156.307 116.946 161.945 104.146 163.57 90.6382C165.196 77.1307 162.743 63.4649 156.494 51.2139C150.245 38.9628 140.455 28.6243 128.249 21.3884C116.043 14.1525 101.918 10.3132 87.5 10.3125V10.3125Z" fill="#5EA7DA"/>
</g>
<defs>
<clipPath id="clip0_102_33">
<rect width="175" height="165" fill="white"/>
</clipPath>
</defs>
</svg>
