<svg width="42" height="37" viewBox="0 0 42 37" fill="none" xmlns="http://www.w3.org/2000/svg">
<path d="M21.0001 2.3103C11.2737 2.3103 3.38721 9.55173 3.38721 18.4826C3.38721 27.4134 11.2737 34.6549 21.0001 34.6549C30.7265 34.6549 38.613 27.4134 38.613 18.4826C38.613 9.55173 30.7265 2.3103 21.0001 2.3103ZM27.9391 23.4534L26.8147 24.8613C26.7903 24.8919 26.7595 24.9178 26.7241 24.9375C26.6887 24.9572 26.6494 24.9703 26.6085 24.976C26.5675 24.9817 26.5258 24.9799 26.4856 24.9707C26.4455 24.9616 26.4077 24.9452 26.3744 24.9226L19.8718 20.5691C19.8313 20.5424 19.7983 20.5071 19.7758 20.4663C19.7532 20.4255 19.7416 20.3802 19.742 20.3345V10.3964C19.742 10.2376 19.8836 10.1077 20.0566 10.1077H21.9476C22.1206 10.1077 22.2621 10.2376 22.2621 10.3964V19.3309L27.8684 23.0527C28.0099 23.1429 28.0413 23.3234 27.9391 23.4534Z" fill="white"/>
</svg>
