<svg width="48" height="46" viewBox="0 0 48 46" fill="none" xmlns="http://www.w3.org/2000/svg">
<path d="M17.9273 7.07245V18.3883H22.4092V21.2173H7.46965V26.8752H2.98779V38.1911H14.9394V26.8752H10.4576V24.0463H22.4092V26.8752H17.9273V38.1911H29.8789V26.8752H25.3971V24.0463H37.3487V26.8752H32.8668V38.1911H44.8184V26.8752H40.3366V21.2173H25.3971V18.3883H29.8789V7.07245H17.9273ZM20.9152 9.90142H26.891V15.5594H20.9152V9.90142ZM5.9757 29.7042H11.9515V35.3622H5.9757V29.7042ZM20.9152 29.7042H26.891V35.3622H20.9152V29.7042ZM35.8547 29.7042H41.8305V35.3622H35.8547V29.7042Z" fill="white"/>
</svg>
