<svg width="41" height="38" viewBox="0 0 41 38" fill="none" xmlns="http://www.w3.org/2000/svg">
<g clip-path="url(#clip0_1_309)">
<path fill-rule="evenodd" clip-rule="evenodd" d="M26.5183 0.565592L38.1248 7.10523C38.783 7.47133 39.3294 7.99619 39.7094 8.62744C40.0894 9.25869 40.2897 9.97425 40.2904 10.7027V22.5137C40.2905 23.2439 40.0902 23.9613 39.7098 24.5942C39.3293 25.2271 38.782 25.7535 38.1224 26.1206L19.0212 36.7788L19.0163 36.7811C18.3525 37.1498 17.5986 37.344 16.831 37.344C16.0635 37.344 15.3095 37.1498 14.6457 36.7811H14.6432L3.02191 30.2934C2.36672 29.927 1.82334 29.4027 1.44595 28.7727C1.06857 28.1427 0.870359 27.4291 0.871096 26.7029V14.833C0.871096 14.1164 1.06327 13.4233 1.41311 12.8174L1.42297 12.8056L1.4476 12.7608C1.81716 12.1432 2.35671 11.6151 3.02438 11.245L22.16 0.563234C22.8198 0.194538 23.5702 0.000244141 24.3342 0.000244141C25.0983 0.000244141 25.8487 0.194538 26.5085 0.563234L26.5134 0.565592H26.5183ZM24.0226 3.61617C24.1168 3.56356 24.2239 3.53584 24.333 3.53584C24.4421 3.53584 24.5492 3.56356 24.6434 3.61617L34.7816 9.32597L17.1611 19.1048C17.0606 19.1609 16.9462 19.1905 16.8298 19.1905C16.7133 19.1905 16.599 19.1609 16.4984 19.1048L6.35778 13.4751L24.0226 3.61617V3.61617ZM19.0163 22.1648L22.3793 20.2977V30.812L18.6837 32.8748V22.3322C18.7979 22.281 18.9097 22.2252 19.0188 22.1648H19.0163ZM26.0724 28.7516V18.249L29.8197 16.1697V26.6605L26.0724 28.7516V28.7516ZM33.5152 24.5977L36.2623 23.0653H36.2672C36.3671 23.0096 36.4499 22.9298 36.5074 22.8338C36.5649 22.7378 36.5951 22.629 36.5949 22.5184V12.4096L33.5152 14.1187V24.5977V24.5977ZM4.88448 27.2381L14.9857 32.8795V22.3345C14.8698 22.2827 14.7564 22.2261 14.6457 22.1648L4.56666 16.5705V26.7029C4.56666 26.9269 4.68985 27.1296 4.88448 27.2381V27.2381Z" fill="white"/>
</g>
<defs>
<clipPath id="clip0_1_309">
<rect width="39.4194" height="37.7196" fill="white" transform="translate(0.871094)"/>
</clipPath>
</defs>
</svg>
