<svg width="43" height="38" viewBox="0 0 43 38" fill="none" xmlns="http://www.w3.org/2000/svg">
<path fill-rule="evenodd" clip-rule="evenodd" d="M42.4737 37.3799C42.6405 37.1838 42.7729 36.9509 42.8632 36.6945C42.9535 36.438 43 36.1631 43 35.8855C43 35.6078 42.9535 35.3329 42.8632 35.0765C42.7729 34.8201 42.6405 34.5871 42.4737 34.3911L29.4072 18.9994L42.4737 3.60783C42.8101 3.21149 42.9991 2.67393 42.9991 2.11342C42.9991 1.5529 42.8101 1.01535 42.4737 0.619003C42.1373 0.22266 41.6811 0 41.2054 0C40.7297 0 40.2735 0.22266 39.9371 0.619003L25.6059 17.505C25.4391 17.7011 25.3067 17.934 25.2164 18.1905C25.1261 18.4469 25.0796 18.7218 25.0796 18.9994C25.0796 19.2771 25.1261 19.552 25.2164 19.8084C25.3067 20.0649 25.4391 20.2978 25.6059 20.4939L39.9371 37.3799C40.1035 37.5765 40.3012 37.7324 40.5188 37.8388C40.7365 37.9452 40.9698 38 41.2054 38C41.441 38 41.6743 37.9452 41.892 37.8388C42.1096 37.7324 42.3073 37.5765 42.4737 37.3799ZM0.526291 37.3799C0.359464 37.1838 0.227106 36.9509 0.136796 36.6945C0.0464863 36.438 0 36.1631 0 35.8855C0 35.6078 0.0464863 35.3329 0.136796 35.0765C0.227106 34.8201 0.359464 34.5871 0.526291 34.3911L13.5928 18.9994L0.526291 3.60783C0.189914 3.21149 0.000939623 2.67393 0.000939627 2.11342C0.00093963 1.5529 0.189914 1.01535 0.526291 0.619003C0.862668 0.22266 1.31889 0 1.7946 0C2.27031 0 2.72654 0.22266 3.06291 0.619003L17.3941 17.505C17.5609 17.7011 17.6933 17.934 17.7836 18.1905C17.8739 18.4469 17.9204 18.7218 17.9204 18.9994C17.9204 19.2771 17.8739 19.552 17.7836 19.8084C17.6933 20.0649 17.5609 20.2978 17.3941 20.4939L3.06291 37.3799C2.89651 37.5765 2.69883 37.7324 2.48119 37.8388C2.26355 37.9452 2.03023 38 1.7946 38C1.55897 38 1.32565 37.9452 1.10802 37.8388C0.890379 37.7324 0.692696 37.5765 0.526291 37.3799Z" fill="white"/>
</svg>
