<svg id="exportIcon" width="33" height="32" viewBox="0 0 33 32" fill="none" xmlns="http://www.w3.org/2000/svg">
<path d="M2.0625 4C2.0625 3.46957 2.2798 2.96086 2.66659 2.58579C3.05339 2.21071 3.57799 2 4.125 2H8.25C8.79701 2 9.32161 2.21071 9.70841 2.58579C10.0952 2.96086 10.3125 3.46957 10.3125 4V8C10.3125 8.53043 10.0952 9.03914 9.70841 9.41421C9.32161 9.78929 8.79701 10 8.25 10H4.125C3.57799 10 3.05339 9.78929 2.66659 9.41421C2.2798 9.03914 2.0625 8.53043 2.0625 8V4ZM12.375 4C12.375 3.46957 12.5923 2.96086 12.9791 2.58579C13.3659 2.21071 13.8905 2 14.4375 2H18.5625C19.1095 2 19.6341 2.21071 20.0209 2.58579C20.4077 2.96086 20.625 3.46957 20.625 4V8C20.625 8.53043 20.4077 9.03914 20.0209 9.41421C19.6341 9.78929 19.1095 10 18.5625 10H14.4375C13.8905 10 13.3659 9.78929 12.9791 9.41421C12.5923 9.03914 12.375 8.53043 12.375 8V4ZM22.6875 4C22.6875 3.46957 22.9048 2.96086 23.2916 2.58579C23.6784 2.21071 24.203 2 24.75 2H28.875C29.422 2 29.9466 2.21071 30.3334 2.58579C30.7202 2.96086 30.9375 3.46957 30.9375 4V8C30.9375 8.53043 30.7202 9.03914 30.3334 9.41421C29.9466 9.78929 29.422 10 28.875 10H24.75C24.203 10 23.6784 9.78929 23.2916 9.41421C22.9048 9.03914 22.6875 8.53043 22.6875 8V4ZM2.0625 14C2.0625 13.4696 2.2798 12.9609 2.66659 12.5858C3.05339 12.2107 3.57799 12 4.125 12H8.25C8.79701 12 9.32161 12.2107 9.70841 12.5858C10.0952 12.9609 10.3125 13.4696 10.3125 14V18C10.3125 18.5304 10.0952 19.0391 9.70841 19.4142C9.32161 19.7893 8.79701 20 8.25 20H4.125C3.57799 20 3.05339 19.7893 2.66659 19.4142C2.2798 19.0391 2.0625 18.5304 2.0625 18V14ZM12.375 14C12.375 13.4696 12.5923 12.9609 12.9791 12.5858C13.3659 12.2107 13.8905 12 14.4375 12H18.5625C19.1095 12 19.6341 12.2107 20.0209 12.5858C20.4077 12.9609 20.625 13.4696 20.625 14V18C20.625 18.5304 20.4077 19.0391 20.0209 19.4142C19.6341 19.7893 19.1095 20 18.5625 20H14.4375C13.8905 20 13.3659 19.7893 12.9791 19.4142C12.5923 19.0391 12.375 18.5304 12.375 18V14ZM22.6875 14C22.6875 13.4696 22.9048 12.9609 23.2916 12.5858C23.6784 12.2107 24.203 12 24.75 12H28.875C29.422 12 29.9466 12.2107 30.3334 12.5858C30.7202 12.9609 30.9375 13.4696 30.9375 14V18C30.9375 18.5304 30.7202 19.0391 30.3334 19.4142C29.9466 19.7893 29.422 20 28.875 20H24.75C24.203 20 23.6784 19.7893 23.2916 19.4142C22.9048 19.0391 22.6875 18.5304 22.6875 18V14ZM2.0625 24C2.0625 23.4696 2.2798 22.9609 2.66659 22.5858C3.05339 22.2107 3.57799 22 4.125 22H8.25C8.79701 22 9.32161 22.2107 9.70841 22.5858C10.0952 22.9609 10.3125 23.4696 10.3125 24V28C10.3125 28.5304 10.0952 29.0391 9.70841 29.4142C9.32161 29.7893 8.79701 30 8.25 30H4.125C3.57799 30 3.05339 29.7893 2.66659 29.4142C2.2798 29.0391 2.0625 28.5304 2.0625 28V24ZM12.375 24C12.375 23.4696 12.5923 22.9609 12.9791 22.5858C13.3659 22.2107 13.8905 22 14.4375 22H18.5625C19.1095 22 19.6341 22.2107 20.0209 22.5858C20.4077 22.9609 20.625 23.4696 20.625 24V28C20.625 28.5304 20.4077 29.0391 20.0209 29.4142C19.6341 29.7893 19.1095 30 18.5625 30H14.4375C13.8905 30 13.3659 29.7893 12.9791 29.4142C12.5923 29.0391 12.375 28.5304 12.375 28V24ZM22.6875 24C22.6875 23.4696 22.9048 22.9609 23.2916 22.5858C23.6784 22.2107 24.203 22 24.75 22H28.875C29.422 22 29.9466 22.2107 30.3334 22.5858C30.7202 22.9609 30.9375 23.4696 30.9375 24V28C30.9375 28.5304 30.7202 29.0391 30.3334 29.4142C29.9466 29.7893 29.422 30 28.875 30H24.75C24.203 30 23.6784 29.7893 23.2916 29.4142C22.9048 29.0391 22.6875 28.5304 22.6875 28V24Z" fill="white"/>
</svg>
