<svg width="51" height="45" viewBox="0 0 51 45" fill="none" xmlns="http://www.w3.org/2000/svg">
<path d="M46.2677 22.8684L27.3967 4.32293C26.602 3.54031 25.0756 3.54031 24.2809 4.32293L5.40993 22.8684C5.13831 23.1347 4.96001 23.4651 4.89673 23.8193C4.83345 24.1736 4.88791 24.5365 5.05348 24.8639C5.38896 25.5334 6.13961 25.9636 6.96783 25.9636H11.1614V38.9455C11.1614 39.4373 11.3823 39.909 11.7755 40.2568C12.1687 40.6046 12.7021 40.8 13.2582 40.8H19.5485C20.1046 40.8 20.6379 40.6046 21.0311 40.2568C21.4243 39.909 21.6453 39.4373 21.6453 38.9455V31.5273H30.0324V38.9455C30.0324 39.4373 30.2533 39.909 30.6465 40.2568C31.0397 40.6046 31.573 40.8 32.1291 40.8H38.4194C38.9755 40.8 39.5089 40.6046 39.9021 40.2568C40.2953 39.909 40.5162 39.4373 40.5162 38.9455V25.9636H44.7098C45.1158 25.9652 45.5137 25.8622 45.8547 25.6672C46.1957 25.4722 46.4652 25.1937 46.6304 24.8656C46.7955 24.5374 46.8492 24.1739 46.7848 23.8193C46.7204 23.4647 46.5407 23.1343 46.2677 22.8684V22.8684Z" fill="white"/>
</svg>
