<svg width="37" height="38" viewBox="0 0 37 38" fill="none" xmlns="http://www.w3.org/2000/svg">
<path fill-rule="evenodd" clip-rule="evenodd" d="M18.8375 26.9658C18.7298 26.8555 18.6444 26.7244 18.5861 26.5802C18.5278 26.4359 18.4978 26.2812 18.4978 26.125C18.4978 25.9688 18.5278 25.8142 18.5861 25.6699C18.6444 25.5256 18.7298 25.3946 18.8375 25.2843L24.9587 19L18.8375 12.7158C18.6204 12.4928 18.4984 12.1904 18.4984 11.875C18.4984 11.5597 18.6204 11.2573 18.8375 11.0343C19.0546 10.8113 19.3491 10.686 19.6561 10.686C19.9632 10.686 20.2576 10.8113 20.4747 11.0343L27.4122 18.1593C27.5199 18.2696 27.6053 18.4006 27.6636 18.5449C27.7219 18.6892 27.7519 18.8438 27.7519 19C27.7519 19.1562 27.7219 19.3109 27.6636 19.4552C27.6053 19.5994 27.5199 19.7305 27.4122 19.8408L20.4747 26.9658C20.3673 27.0764 20.2397 27.1641 20.0993 27.224C19.9588 27.2838 19.8082 27.3147 19.6561 27.3147C19.504 27.3147 19.3534 27.2838 19.213 27.224C19.0725 27.1641 18.9449 27.0764 18.8375 26.9658Z" fill="white"/>
<path fill-rule="evenodd" clip-rule="evenodd" d="M2.3125 19C2.3125 18.6851 2.43432 18.383 2.65116 18.1603C2.868 17.9376 3.16209 17.8125 3.46875 17.8125H24.2812C24.5879 17.8125 24.882 17.9376 25.0988 18.1603C25.3157 18.383 25.4375 18.6851 25.4375 19C25.4375 19.3149 25.3157 19.617 25.0988 19.8397C24.882 20.0624 24.5879 20.1875 24.2812 20.1875H3.46875C3.16209 20.1875 2.868 20.0624 2.65116 19.8397C2.43432 19.617 2.3125 19.3149 2.3125 19Z" fill="white"/>
<path fill-rule="evenodd" clip-rule="evenodd" d="M31.2188 34.4375C32.1387 34.4375 33.021 34.0622 33.6715 33.3941C34.322 32.726 34.6875 31.8198 34.6875 30.875V7.125C34.6875 6.18017 34.322 5.27403 33.6715 4.60593C33.021 3.93783 32.1387 3.5625 31.2188 3.5625H12.7188C11.7988 3.5625 10.9165 3.93783 10.266 4.60593C9.61546 5.27403 9.25 6.18017 9.25 7.125V10.6875C9.25 11.0024 9.37182 11.3045 9.58866 11.5272C9.8055 11.7499 10.0996 11.875 10.4062 11.875C10.7129 11.875 11.007 11.7499 11.2238 11.5272C11.4407 11.3045 11.5625 11.0024 11.5625 10.6875V7.125C11.5625 6.81006 11.6843 6.50801 11.9012 6.28531C12.118 6.06261 12.4121 5.9375 12.7188 5.9375H31.2188C31.5254 5.9375 31.8195 6.06261 32.0363 6.28531C32.2532 6.50801 32.375 6.81006 32.375 7.125V30.875C32.375 31.1899 32.2532 31.492 32.0363 31.7147C31.8195 31.9374 31.5254 32.0625 31.2188 32.0625H12.7188C12.4121 32.0625 12.118 31.9374 11.9012 31.7147C11.6843 31.492 11.5625 31.1899 11.5625 30.875V27.3125C11.5625 26.9976 11.4407 26.6955 11.2238 26.4728C11.007 26.2501 10.7129 26.125 10.4062 26.125C10.0996 26.125 9.8055 26.2501 9.58866 26.4728C9.37182 26.6955 9.25 26.9976 9.25 27.3125V30.875C9.25 31.8198 9.61546 32.726 10.266 33.3941C10.9165 34.0622 11.7988 34.4375 12.7188 34.4375H31.2188Z" fill="white"/>
</svg>
