<svg width="50" height="45" viewBox="0 0 50 45" fill="none" xmlns="http://www.w3.org/2000/svg">
<path fill-rule="evenodd" clip-rule="evenodd" d="M14.5189 4.62939C14.664 4.49843 14.8364 4.39453 15.0263 4.32363C15.2161 4.25274 15.4196 4.21625 15.6251 4.21625C15.8306 4.21625 16.0341 4.25274 16.224 4.32363C16.4138 4.39453 16.5862 4.49843 16.7314 4.62939L35.4814 21.5044C35.6269 21.635 35.7423 21.7902 35.8211 21.961C35.8999 22.1319 35.9404 22.315 35.9404 22.5C35.9404 22.685 35.8999 22.8681 35.8211 23.039C35.7423 23.2098 35.6269 23.365 35.4814 23.4956L16.7314 40.3706C16.438 40.6347 16.04 40.783 15.6251 40.783C15.2102 40.783 14.8123 40.6347 14.5189 40.3706C14.2255 40.1066 14.0606 39.7484 14.0606 39.375C14.0606 39.0016 14.2255 38.6434 14.5189 38.3794L32.1657 22.5L14.5189 6.62064C14.3733 6.49001 14.2579 6.33483 14.1791 6.16398C14.1004 5.99314 14.0598 5.80998 14.0598 5.62501C14.0598 5.44004 14.1004 5.25689 14.1791 5.08604C14.2579 4.9152 14.3733 4.76002 14.5189 4.62939V4.62939Z" fill="white"/>
</svg>
