<svg width="20" height="20" viewBox="0 0 20 20" fill="none" xmlns="http://www.w3.org/2000/svg">
<g clip-path="url(#clip0_1_1625)">
<path d="M14.6774 12.93C15.8878 11.2784 16.4299 9.23061 16.1953 7.19644C15.9607 5.16226 14.9667 3.29167 13.4121 1.95891C11.8576 0.626151 9.85712 -0.0704958 7.81098 0.00834563C5.76484 0.0871871 3.82391 0.935702 2.37652 2.38413C0.929121 3.83257 0.0819953 5.7741 0.00461798 7.82029C-0.0727593 9.86649 0.625319 11.8664 1.95919 13.4201C3.29307 14.9737 5.16436 15.9663 7.19871 16.1995C9.23305 16.4326 11.2804 15.889 12.9312 14.6775H12.9299C12.9674 14.7275 13.0074 14.775 13.0524 14.8212L17.8649 19.6337C18.0993 19.8683 18.4173 20.0001 18.7489 20.0003C19.0805 20.0004 19.3985 19.8688 19.6331 19.6344C19.8676 19.4 19.9994 19.082 19.9996 18.7504C19.9997 18.4189 19.8681 18.1008 19.6337 17.8662L14.8212 13.0537C14.7765 13.0085 14.7284 12.9667 14.6774 12.9288V12.93ZM14.9999 8.125C14.9999 9.02784 14.8221 9.92183 14.4766 10.7559C14.1311 11.5901 13.6247 12.348 12.9863 12.9864C12.3479 13.6248 11.59 14.1312 10.7559 14.4767C9.92177 14.8222 9.02777 15 8.12493 15C7.22209 15 6.3281 14.8222 5.49398 14.4767C4.65987 14.1312 3.90198 13.6248 3.26357 12.9864C2.62517 12.348 2.11876 11.5901 1.77326 10.7559C1.42776 9.92183 1.24993 9.02784 1.24993 8.125C1.24993 6.30164 1.97426 4.55295 3.26357 3.26364C4.55289 1.97433 6.30157 1.25 8.12493 1.25C9.9483 1.25 11.697 1.97433 12.9863 3.26364C14.2756 4.55295 14.9999 6.30164 14.9999 8.125Z" fill="white"/>
</g>
<defs>
<clipPath id="clip0_1_1625">
<rect width="20" height="20" fill="white"/>
</clipPath>
</defs>
</svg>
