<svg width="26" height="25" viewBox="0 0 26 25" fill="none" xmlns="http://www.w3.org/2000/svg">
<path d="M13 7.42813C12.3073 7.42813 11.6214 7.55931 10.9814 7.8142C10.3414 8.06908 9.75996 8.44268 9.27016 8.91364C8.78035 9.38461 8.39182 9.94373 8.12674 10.5591C7.86166 11.1744 7.72522 11.834 7.72522 12.5C7.72522 13.166 7.86166 13.8256 8.12674 14.4409C8.39182 15.0563 8.78035 15.6154 9.27016 16.0864C9.75996 16.5573 10.3414 16.9309 10.9814 17.1858C11.6214 17.4407 12.3073 17.5719 13 17.5719C14.3989 17.5719 15.7406 17.0375 16.7298 16.0864C17.719 15.1352 18.2747 13.8451 18.2747 12.5C18.2747 11.1549 17.719 9.8648 16.7298 8.91364C15.7406 7.96248 14.3989 7.42813 13 7.42813ZM9.35022 12.5C9.35022 11.5693 9.73475 10.6766 10.4192 10.0185C11.1037 9.36036 12.032 8.99063 13 8.99063C13.9679 8.99063 14.8963 9.36036 15.5807 10.0185C16.2652 10.6766 16.6497 11.5693 16.6497 12.5C16.6497 13.4307 16.2652 14.3234 15.5807 14.9815C14.8963 15.6396 13.9679 16.0094 13 16.0094C12.032 16.0094 11.1037 15.6396 10.4192 14.9815C9.73475 14.3234 9.35022 13.4307 9.35022 12.5Z" fill="white"/>
<path d="M15.9185 2.09856C15.0622 -0.698319 10.9379 -0.698319 10.0815 2.09856L9.92879 2.59699C9.86898 2.79223 9.7645 2.97213 9.62299 3.12349C9.48149 3.27486 9.30655 3.39385 9.111 3.47176C8.91544 3.54967 8.70424 3.58451 8.49287 3.57374C8.28149 3.56296 8.0753 3.50684 7.88942 3.40949L7.41492 3.15949C4.74992 1.76574 1.83629 4.56887 3.28742 7.12981L3.54579 7.58606C3.64704 7.76479 3.7054 7.96305 3.71661 8.1663C3.72781 8.36954 3.69158 8.57262 3.61055 8.76065C3.52953 8.94868 3.40577 9.11689 3.24835 9.25296C3.09093 9.38902 2.90384 9.48949 2.70079 9.54699L2.18242 9.69387C-0.726333 10.5173 -0.726333 14.4829 2.18242 15.3064L2.70079 15.4532C2.90384 15.5107 3.09093 15.6112 3.24835 15.7473C3.40577 15.8833 3.52953 16.0516 3.61055 16.2396C3.69158 16.4276 3.72781 16.6307 3.71661 16.8339C3.7054 17.0372 3.64704 17.2354 3.54579 17.4142L3.28579 17.8704C1.83629 20.4329 4.74992 23.2361 7.41492 21.8392L7.88942 21.5907C8.0753 21.4934 8.28149 21.4373 8.49287 21.4265C8.70424 21.4157 8.91544 21.4506 9.111 21.5285C9.30655 21.6064 9.48149 21.7254 9.62299 21.8767C9.7645 22.0281 9.86898 22.208 9.92879 22.4032L10.0815 22.9017C10.9379 25.6986 15.0622 25.6986 15.9185 22.9017L16.0713 22.4032C16.1311 22.208 16.2356 22.0281 16.3771 21.8767C16.5186 21.7254 16.6935 21.6064 16.8891 21.5285C17.0846 21.4506 17.2958 21.4157 17.5072 21.4265C17.7186 21.4373 17.9248 21.4934 18.1107 21.5907L18.5852 21.8407C21.2502 23.2361 24.1654 20.4314 22.7127 17.8704L22.4543 17.4142C22.353 17.2354 22.2947 17.0372 22.2835 16.8339C22.2723 16.6307 22.3085 16.4276 22.3895 16.2396C22.4706 16.0516 22.5943 15.8833 22.7517 15.7473C22.9092 15.6112 23.0962 15.5107 23.2993 15.4532L23.8177 15.3064C26.7264 14.4829 26.7264 10.5173 23.8177 9.69387L23.2993 9.54699C23.0962 9.48949 22.9092 9.38902 22.7517 9.25296C22.5943 9.11689 22.4706 8.94868 22.3895 8.76065C22.3085 8.57262 22.2723 8.36954 22.2835 8.1663C22.2947 7.96305 22.353 7.76479 22.4543 7.58606L22.7143 7.12981C24.1654 4.56731 21.2485 1.76574 18.5852 3.16106L18.1107 3.40949C17.9248 3.50684 17.7186 3.56296 17.5072 3.57374C17.2958 3.58451 17.0846 3.54967 16.8891 3.47176C16.6935 3.39385 16.5186 3.27486 16.3771 3.12349C16.2356 2.97213 16.1311 2.79223 16.0713 2.59699L15.9185 2.09856ZM11.6399 2.54074C12.0397 1.23606 13.9604 1.23606 14.3602 2.54074L14.5129 3.03918C14.6413 3.45806 14.8656 3.84401 15.1693 4.16871C15.473 4.49342 15.8484 4.74865 16.268 4.91571C16.6877 5.08277 17.1408 5.15741 17.5944 5.13416C18.0479 5.11092 18.4903 4.99037 18.889 4.78137L19.3619 4.53137C20.6034 3.88293 21.9619 5.18762 21.2859 6.38293L21.0275 6.83918C20.8105 7.22266 20.6854 7.64797 20.6615 8.08395C20.6376 8.51994 20.7154 8.95554 20.8893 9.35884C21.0632 9.76215 21.3287 10.1229 21.6664 10.4148C22.0042 10.7066 22.4055 10.9221 22.841 11.0454L23.3578 11.1923C24.7147 11.5767 24.7147 13.4236 23.3578 13.8079L22.8394 13.9548C22.4038 14.0783 22.0024 14.2939 21.6647 14.5859C21.327 14.878 21.0616 15.2389 20.8878 15.6424C20.7141 16.0459 20.6365 16.4817 20.6606 16.9177C20.6848 17.3538 20.8102 17.7792 21.0275 18.1626L21.2875 18.6173C21.9619 19.8111 20.605 21.1173 19.3619 20.4673L18.889 20.2189C18.4902 20.0099 18.0477 19.8894 17.5941 19.8663C17.1405 19.8431 16.6872 19.9179 16.2676 20.0851C15.8479 20.2523 15.4725 20.5077 15.1689 20.8326C14.8653 21.1575 14.6411 21.5436 14.5129 21.9626L14.3602 22.4595C13.9604 23.7642 12.0397 23.7642 11.6399 22.4595L11.4872 21.9611C11.3587 21.5424 11.1345 21.1567 10.8309 20.8321C10.5273 20.5076 10.1521 20.2524 9.73264 20.0854C9.31322 19.9184 8.86026 19.8437 8.40693 19.8668C7.9536 19.8898 7.51138 20.0102 7.11267 20.2189L6.63817 20.4689C5.39667 21.1173 4.03817 19.8126 4.71417 18.6173L4.97254 18.1626C5.19021 17.7791 5.31582 17.3536 5.34016 16.9174C5.36449 16.4811 5.28694 16.0451 5.11317 15.6414C4.93941 15.2377 4.67386 14.8766 4.33599 14.5845C3.99813 14.2923 3.59653 14.0767 3.16067 13.9532L2.64229 13.8064C1.28542 13.422 1.28542 11.5751 2.64229 11.1907L3.16067 11.0439C3.59585 10.9203 3.99679 10.7047 4.33415 10.4129C4.6715 10.1211 4.93673 9.76047 5.11043 9.35739C5.28412 8.95431 5.36189 8.51898 5.33803 8.08327C5.31417 7.64756 5.1893 7.2225 4.97254 6.83918L4.71254 6.38293C4.03817 5.18918 5.39504 3.88293 6.63817 4.53293L7.11267 4.78137C7.51138 4.99008 7.9536 5.11039 8.40693 5.13348C8.86026 5.15658 9.31322 5.08187 9.73264 4.91483C10.1521 4.7478 10.5273 4.49266 10.8309 4.16812C11.1345 3.84358 11.3587 3.45785 11.4872 3.03918L11.6399 2.54074Z" fill="white"/>
</svg>
