<svg width="37" height="33" viewBox="0 0 37 33" fill="none" xmlns="http://www.w3.org/2000/svg">
<g clip-path="url(#clip0_1_293)">
<path fill-rule="evenodd" clip-rule="evenodd" d="M21.6922 2.1288C20.7396 -0.7096 16.1636 -0.7096 15.211 2.1288L14.9804 2.81813C14.8381 3.24306 14.5894 3.63461 14.2525 3.96405C13.9156 4.2935 13.4991 4.55248 13.0335 4.72201C12.5679 4.89154 12.0651 4.96732 11.5619 4.9438C11.0587 4.92027 10.5678 4.79803 10.1253 4.58604L9.41032 4.24138C6.45114 2.82624 3.21519 5.67072 4.8274 8.26988L5.21719 8.90041C6.24587 10.5629 5.27024 12.6329 3.20597 13.1682L2.42177 13.3709C-0.807258 14.2082 -0.807258 18.2306 2.42177 19.068L3.20597 19.2707C3.68939 19.3958 4.13482 19.6145 4.5096 19.9106C4.88438 20.2067 5.17901 20.5728 5.37187 20.9821C5.56474 21.3913 5.65095 21.8333 5.62418 22.2757C5.59742 22.718 5.45835 23.1495 5.21719 23.5385L4.8251 24.167C3.21519 26.7681 6.45115 29.6126 9.40802 28.1955L10.1253 27.8528C10.5678 27.6408 11.0587 27.5186 11.5619 27.4951C12.0651 27.4715 12.5679 27.5473 13.0335 27.7169C13.4991 27.8864 13.9156 28.1454 14.2525 28.4748C14.5894 28.8043 14.8381 29.1958 14.9804 29.6207L15.211 30.3101C16.1636 33.1485 20.7396 33.1485 21.6922 30.3101L21.9228 29.6207C22.0651 29.1958 22.3139 28.8043 22.6508 28.4748C22.9876 28.1454 23.4041 27.8864 23.8697 27.7169C24.3353 27.5473 24.8381 27.4715 25.3413 27.4951C25.8446 27.5186 26.3354 27.6408 26.7779 27.8528L27.4929 28.1975C30.4521 29.6126 33.688 26.7681 32.0758 24.169L31.686 23.5385C31.4449 23.1495 31.3058 22.718 31.279 22.2757C31.2523 21.8333 31.3385 21.3913 31.5314 20.9821C31.7242 20.5728 32.0188 20.2067 32.3936 19.9106C32.7684 19.6145 33.2138 19.3958 33.6973 19.2707L34.4815 19.068C37.7105 18.2306 37.7105 14.2082 34.4815 13.3709L33.6973 13.1682C33.2138 13.043 32.7684 12.8244 32.3936 12.5283C32.0188 12.2321 31.7242 11.866 31.5314 11.4568C31.3385 11.0475 31.2523 10.6055 31.279 10.1632C31.3058 9.72084 31.4449 9.28937 31.686 8.90041L32.0781 8.27191C33.688 5.67072 30.4521 2.82624 27.4952 4.24341L26.7779 4.58604C26.3354 4.79803 25.8446 4.92027 25.3413 4.9438C24.8381 4.96732 24.3353 4.89154 23.8697 4.72201C23.4041 4.55248 22.9876 4.2935 22.6508 3.96405C22.3139 3.63461 22.0651 3.24306 21.9228 2.81813L21.6922 2.1288V2.1288ZM18.4516 22.1598C20.2439 22.1598 21.9628 21.5339 23.2302 20.4199C24.4975 19.3059 25.2095 17.7949 25.2095 16.2194C25.2095 14.6439 24.4975 13.133 23.2302 12.019C21.9628 10.9049 20.2439 10.2791 18.4516 10.2791C16.6599 10.2791 14.9416 10.9047 13.6747 12.0184C12.4078 13.132 11.696 14.6425 11.696 16.2174C11.696 17.7924 12.4078 19.3028 13.6747 20.4164C14.9416 21.5301 16.6599 22.1557 18.4516 22.1557V22.1598Z" fill="white"/>
</g>
<defs>
<clipPath id="clip0_1_293">
<rect width="36.9032" height="32.4389" fill="white"/>
</clipPath>
</defs>
</svg>
