<svg width="37" height="39" viewBox="0 0 37 39" fill="none" xmlns="http://www.w3.org/2000/svg">
<g clip-path="url(#clip0_1_1341)">
<path d="M18.5 0C13.5935 0 8.88795 2.05446 5.41852 5.71142C1.9491 9.36838 0 14.3283 0 19.5C0 24.6717 1.9491 29.6316 5.41852 33.2886C8.88795 36.9455 13.5935 39 18.5 39C23.4065 39 28.1121 36.9455 31.5815 33.2886C35.0509 29.6316 37 24.6717 37 19.5C37 14.3283 35.0509 9.36838 31.5815 5.71142C28.1121 2.05446 23.4065 0 18.5 0V0ZM26.5938 18.2812C26.9004 18.2812 27.1945 18.4097 27.4113 18.6382C27.6282 18.8668 27.75 19.1768 27.75 19.5C27.75 19.8232 27.6282 20.1332 27.4113 20.3618C27.1945 20.5903 26.9004 20.7188 26.5938 20.7188H13.1974L18.1624 25.9496C18.2699 26.0629 18.3552 26.1975 18.4133 26.3455C18.4715 26.4936 18.5015 26.6522 18.5015 26.8125C18.5015 26.9728 18.4715 27.1314 18.4133 27.2795C18.3552 27.4275 18.2699 27.5621 18.1624 27.6754C18.0549 27.7887 17.9272 27.8786 17.7868 27.9399C17.6463 28.0012 17.4958 28.0328 17.3438 28.0328C17.1917 28.0328 17.0412 28.0012 16.9007 27.9399C16.7603 27.8786 16.6326 27.7887 16.5251 27.6754L9.58762 20.3629C9.47995 20.2497 9.39452 20.1152 9.33623 19.9671C9.27794 19.819 9.24793 19.6603 9.24793 19.5C9.24793 19.3397 9.27794 19.181 9.33623 19.0329C9.39452 18.8848 9.47995 18.7503 9.58762 18.6371L16.5251 11.3246C16.7422 11.0958 17.0367 10.9672 17.3438 10.9672C17.6508 10.9672 17.9453 11.0958 18.1624 11.3246C18.3795 11.5535 18.5015 11.8639 18.5015 12.1875C18.5015 12.5111 18.3795 12.8215 18.1624 13.0504L13.1974 18.2812H26.5938Z" fill="#0094FF" fill-opacity="0.84"/>
</g>
<defs>
<clipPath id="clip0_1_1341">
<rect width="37" height="39" fill="white"/>
</clipPath>
</defs>
</svg>
