<svg width="39" height="40" viewBox="0 0 39 40" fill="none" xmlns="http://www.w3.org/2000/svg">
<path d="M11.001 9.09079C11.001 8.8015 10.8956 8.52405 10.7081 8.31949C10.5206 8.11492 10.2663 8 10.001 8C9.73584 8 9.4815 8.11492 9.29397 8.31949C9.10644 8.52405 9.00109 8.8015 9.00109 9.09079V28.2735L6.70919 25.7712C6.61622 25.6698 6.50584 25.5893 6.38437 25.5345C6.2629 25.4796 6.1327 25.4513 6.00122 25.4513C5.86974 25.4513 5.73954 25.4796 5.61807 25.5345C5.4966 25.5893 5.38622 25.6698 5.29325 25.7712C5.20028 25.8726 5.12653 25.993 5.07621 26.1255C5.0259 26.258 5 26.4001 5 26.5435C5 26.6869 5.0259 26.8289 5.07621 26.9614C5.12653 27.094 5.20028 27.2144 5.29325 27.3158L9.29308 31.6768L9.30708 31.692C9.49482 31.8917 9.7473 32.0024 10.0095 32C10.2717 31.9975 10.5224 31.8821 10.707 31.6789L14.7068 27.3158C14.8946 27.1112 15.0002 26.8337 15.0004 26.5443C15.0006 26.2548 14.8953 25.9771 14.7078 25.7723C14.5203 25.5675 14.2659 25.4523 14.0006 25.4521C13.7352 25.4519 13.4807 25.5667 13.2929 25.7712L11.001 28.2735V9.09079ZM19.0007 10.1816C18.7354 10.1816 18.4811 10.0667 18.2936 9.8621C18.1061 9.65754 18.0007 9.38009 18.0007 9.09079C18.0007 8.8015 18.1061 8.52405 18.2936 8.31949C18.4811 8.11492 18.7354 8 19.0007 8H21.0006C21.2658 8 21.5201 8.11492 21.7076 8.31949C21.8952 8.52405 22.0005 8.8015 22.0005 9.09079C22.0005 9.38009 21.8952 9.65754 21.7076 9.8621C21.5201 10.0667 21.2658 10.1816 21.0006 10.1816H19.0007ZM19.0007 16.7263C18.7354 16.7263 18.4811 16.6114 18.2936 16.4069C18.1061 16.2023 18.0007 15.9248 18.0007 15.6356C18.0007 15.3463 18.1061 15.0688 18.2936 14.8642C18.4811 14.6597 18.7354 14.5448 19.0007 14.5448H25.0004C25.2656 14.5448 25.5199 14.6597 25.7075 14.8642C25.895 15.0688 26.0003 15.3463 26.0003 15.6356C26.0003 15.9248 25.895 16.2023 25.7075 16.4069C25.5199 16.6114 25.2656 16.7263 25.0004 16.7263H19.0007ZM19.0007 23.2711C18.7354 23.2711 18.4811 23.1562 18.2936 22.9516C18.1061 22.7471 18.0007 22.4696 18.0007 22.1803C18.0007 21.891 18.1061 21.6136 18.2936 21.409C18.4811 21.2044 18.7354 21.0895 19.0007 21.0895H29.0002C29.2654 21.0895 29.5198 21.2044 29.7073 21.409C29.8948 21.6136 30.0002 21.891 30.0002 22.1803C30.0002 22.4696 29.8948 22.7471 29.7073 22.9516C29.5198 23.1562 29.2654 23.2711 29.0002 23.2711H19.0007ZM18.0007 28.7251C18.0007 29.0144 18.1061 29.2918 18.2936 29.4964C18.4811 29.7009 18.7354 29.8159 19.0007 29.8159H33C33.2652 29.8159 33.5196 29.7009 33.7071 29.4964C33.8946 29.2918 34 29.0144 34 28.7251C34 28.4358 33.8946 28.1583 33.7071 27.9538C33.5196 27.7492 33.2652 27.6343 33 27.6343H19.0007C18.7354 27.6343 18.4811 27.7492 18.2936 27.9538C18.1061 28.1583 18.0007 28.4358 18.0007 28.7251Z" fill="white"/>
</svg>
