<svg width="43" height="39" viewBox="0 0 43 39" fill="none" xmlns="http://www.w3.org/2000/svg">
<path d="M35.8677 28.6902C35.0951 27.0114 33.9741 25.4864 32.5669 24.2003C31.164 22.9105 29.5021 21.8821 27.673 21.172C27.6567 21.1645 27.6403 21.1607 27.6239 21.1532C30.1753 19.4625 31.8338 16.7084 31.8338 13.6012C31.8338 8.45379 27.2881 4.28326 21.6776 4.28326C16.0671 4.28326 11.5213 8.45379 11.5213 13.6012C11.5213 16.7084 13.1799 19.4625 15.7313 21.157C15.7149 21.1645 15.6985 21.1682 15.6821 21.1758C13.8474 21.8859 12.2011 22.9041 10.7883 24.2041C9.38242 25.4912 8.26152 27.0159 7.4875 28.694C6.7271 30.3368 6.317 32.0982 6.2794 33.8827C6.27831 33.9228 6.28597 33.9627 6.30195 34C6.31792 34.0374 6.34188 34.0714 6.37241 34.1001C6.40294 34.1288 6.43943 34.1516 6.47972 34.1672C6.52002 34.1828 6.5633 34.1908 6.60702 34.1908H9.06418C9.24437 34.1908 9.3877 34.0593 9.3918 33.8977C9.4737 30.9971 10.7432 28.2807 12.9874 26.2217C15.3095 24.0914 18.3932 22.9191 21.6776 22.9191C24.962 22.9191 28.0457 24.0914 30.3677 26.2217C32.6119 28.2807 33.8815 30.9971 33.9634 33.8977C33.9675 34.063 34.1108 34.1908 34.291 34.1908H36.7481C36.7919 34.1908 36.8352 34.1828 36.8754 34.1672C36.9157 34.1516 36.9522 34.1288 36.9828 34.1001C37.0133 34.0714 37.0372 34.0374 37.0532 34C37.0692 33.9627 37.0769 33.9228 37.0758 33.8827C37.0348 32.0867 36.6294 30.3396 35.8677 28.6902V28.6902ZM21.6776 20.0636C19.7979 20.0636 18.0287 19.3911 16.6977 18.17C15.3668 16.9489 14.6337 15.3258 14.6337 13.6012C14.6337 11.8766 15.3668 10.2535 16.6977 9.0324C18.0287 7.8113 19.7979 7.13876 21.6776 7.13876C23.5573 7.13876 25.3265 7.8113 26.6574 9.0324C27.9884 10.2535 28.7214 11.8766 28.7214 13.6012C28.7214 15.3258 27.9884 16.9489 26.6574 18.17C25.3265 19.3911 23.5573 20.0636 21.6776 20.0636Z" fill="white"/>
</svg>
