<svg width="50" height="41" viewBox="0 0 50 41" fill="none" xmlns="http://www.w3.org/2000/svg">
<path d="M18.5569 3.39478C18.1468 3.39478 17.7534 3.5289 17.4634 3.76764C17.1734 4.00638 17.0105 4.33018 17.0105 4.66781V8.48692H12.3714C11.9613 8.48692 11.5679 8.62104 11.2779 8.85979C10.9879 9.09853 10.825 9.42233 10.825 9.75996V17.8463L7.81475 18.7544C7.61375 18.8148 7.43018 18.909 7.27565 19.0309C7.12112 19.1528 6.99901 19.2997 6.91703 19.4624C6.83505 19.6252 6.795 19.8002 6.7994 19.9763C6.8038 20.1524 6.85256 20.3259 6.9426 20.4857L11.757 29.0049C12.2121 28.8809 12.6926 28.8329 13.1705 28.8637C13.6484 28.8944 14.1141 29.0033 14.5403 29.184C14.9665 29.3646 15.3446 29.6134 15.6527 29.9158C15.9607 30.2181 16.1924 30.568 16.3342 30.945C16.3342 30.9518 16.3425 30.9671 16.3528 30.9908C16.5429 31.41 16.8032 31.8054 17.126 32.1654C17.695 32.7883 18.2888 33.099 19.0723 33.099C19.8558 33.099 20.4496 32.79 21.0166 32.1654C21.3505 31.7927 21.6172 31.3822 21.8084 30.9467C22.0359 30.3413 22.4927 29.8118 23.1118 29.4354C23.731 29.0589 24.4802 28.8554 25.2499 28.8544C26.0196 28.8535 26.7695 29.0552 27.3901 29.4301C28.0106 29.805 28.4693 30.3334 28.699 30.9382L28.7196 30.9857C28.9119 31.4062 29.1742 31.8027 29.499 32.1637C30.0701 32.7917 30.666 33.099 31.4433 33.099C32.2206 33.099 32.8144 32.79 33.3876 32.1654C33.7228 31.791 33.9908 31.3788 34.1835 30.9416C34.3302 30.5545 34.5716 30.1962 34.8929 29.8888C35.2143 29.5814 35.6086 29.3314 36.0518 29.1542C36.4949 28.9771 36.9774 28.8765 37.4695 28.8587C37.9617 28.8409 38.453 28.9062 38.9133 29.0507L44.0019 20.5112C44.098 20.3502 44.1516 20.1743 44.1593 19.9951C44.1671 19.8158 44.1287 19.6372 44.0467 19.471C43.9648 19.3049 43.8411 19.1548 43.6838 19.0307C43.5265 18.9066 43.3391 18.8113 43.1339 18.751L39.6906 17.7394V9.75996C39.6906 9.42233 39.5277 9.09853 39.2377 8.85979C38.9477 8.62104 38.5544 8.48692 38.1442 8.48692H33.5051V4.66781C33.5051 4.33018 33.3422 4.00638 33.0522 3.76764C32.7622 3.5289 32.3689 3.39478 31.9588 3.39478H18.5569ZM30.4124 8.48692H20.1032V5.94085H30.4124V8.48692ZM36.5979 11.033V16.8313L27.532 14.1681C26.0574 13.7353 24.4452 13.7414 22.9754 14.185L13.9178 16.9127V11.033H36.5979Z" fill="white"/>
<path d="M39.1278 31.5101L39.1217 31.4932C39.0338 31.2268 38.8432 30.991 38.5785 30.8216C38.3137 30.6521 37.9892 30.5581 37.6539 30.5537C37.3187 30.5493 36.9907 30.6348 36.7195 30.7972C36.4484 30.9596 36.2487 31.1902 36.1506 31.4541V31.4575L36.1423 31.4728L36.1011 31.5713C35.8396 32.1473 35.4807 32.6902 35.0351 33.1838C34.2372 34.0579 33.0991 34.7963 31.4434 34.7963C29.7878 34.7963 28.6476 34.0579 27.8496 33.1838C27.3784 32.6615 27.0046 32.0843 26.7404 31.4711L26.7342 31.4558C26.6374 31.1948 26.4414 30.9663 26.1749 30.804C25.9084 30.6417 25.5856 30.5541 25.2541 30.5543C24.9226 30.5545 24.5999 30.6424 24.3337 30.805C24.0675 30.9677 23.8718 31.1964 23.7755 31.4575V31.4592L23.7672 31.4762C23.6975 31.6432 23.6184 31.8075 23.5301 31.9684C23.3466 32.3045 23.0621 32.7492 22.6641 33.1838C21.8703 34.0579 20.7343 34.7963 19.0724 34.7963C17.4106 34.7963 16.2725 34.0579 15.4766 33.1838C15.0075 32.6625 14.6357 32.0863 14.3735 31.4745L14.3674 31.4558C14.2699 31.1917 14.0708 30.9608 13.8 30.798C13.5293 30.6351 13.2016 30.5491 12.8663 30.553C12.531 30.5568 12.2063 30.6503 11.9412 30.8192C11.676 30.9882 11.4848 31.2235 11.3963 31.4898L11.3901 31.5051L11.353 31.5967C11.1103 32.1607 10.7595 32.6891 10.3138 33.1617C9.52206 33.9934 8.26022 34.7963 6.18602 34.7963C5.7759 34.7963 5.38257 34.9304 5.09257 35.1691C4.80257 35.4079 4.63965 35.7317 4.63965 36.0693C4.63965 36.407 4.80257 36.7308 5.09257 36.9695C5.38257 37.2082 5.7759 37.3424 6.18602 37.3424C9.43134 37.3424 11.52 36.0235 12.7488 34.7335L12.887 34.5824L13.0024 34.7114C14.1406 35.959 16.0952 37.3424 19.0724 37.3424C22.0497 37.3424 24.0043 35.959 25.1404 34.7114L25.2579 34.579L25.3775 34.7131C26.5156 35.959 28.4703 37.3424 31.4434 37.3424C34.4166 37.3424 36.3712 35.959 37.5093 34.7114L37.6227 34.5841C37.666 34.635 37.7114 34.6826 37.7588 34.7318C38.9856 36.0235 41.0783 37.3424 44.3298 37.3424C44.74 37.3424 45.1333 37.2082 45.4233 36.9695C45.7133 36.7308 45.8762 36.407 45.8762 36.0693C45.8762 35.7317 45.7133 35.4079 45.4233 35.1691C45.1333 34.9304 44.74 34.7963 44.3298 34.7963C42.2433 34.7963 40.9835 33.9934 40.1959 33.1634C39.7286 32.6661 39.3674 32.1071 39.1278 31.5101V31.5101Z" fill="white"/>
</svg>
